<?xml version="1.0" encoding="iso-8859-1"?>
<!-- Generator: Adobe Illustrator 19.0.0, SVG Export Plug-In . SVG Version: 6.00 Build 0)  -->
<svg version="1.1" id="Capa_1" xmlns="http://www.w3.org/2000/svg" xmlns:xlink="http://www.w3.org/1999/xlink" x="0px" y="0px"
	 viewBox="0 0 512 512" style="enable-background:new 0 0 512 512;" xml:space="preserve">
<g>
	<g>
		<path d="M106,121c-24.813,0-45,20.187-45,45c0,8.284,6.716,15,15,15s15-6.716,15-15c0-8.271,6.729-15,15-15s15,6.729,15,15
			c0,8.284,6.716,15,15,15s15-6.716,15-15C151,141.187,130.813,121,106,121z"/>
	</g>
</g>
<g>
	<g>
		<path d="M226,121c-24.813,0-45,20.187-45,45c0,8.284,6.716,15,15,15s15-6.716,15-15c0-8.271,6.729-15,15-15s15,6.729,15,15
			c0,8.284,6.716,15,15,15s15-6.716,15-15C271,141.187,250.813,121,226,121z"/>
	</g>
</g>
<g>
	<g>
		<path d="M226,211H106c-8.284,0-15,6.716-15,15c0,41.355,33.645,75,75,75s75-33.645,75-75C241,217.716,234.284,211,226,211z
			 M166,271c-19.556,0-36.239-12.639-42.43-30.1h84.859C202.239,258.361,185.556,271,166,271z"/>
	</g>
</g>
<g>
	<g>
		<path d="M436,211c-8.284,0-15,6.716-15,15c0,8.271-6.729,15-15,15s-15-6.729-15-15c0-8.284-6.716-15-15-15s-15,6.716-15,15
			c0,24.813,20.187,45,45,45s45-20.187,45-45C451,217.716,444.284,211,436,211z"/>
	</g>
</g>
<g>
	<g>
		<path d="M346,301c-41.355,0-75,33.645-75,75c0,8.284,6.716,15,15,15h120c8.284,0,15-6.716,15-15C421,334.645,387.355,301,346,301z
			 M303.57,361c6.19-17.461,22.873-30,42.43-30s36.239,12.539,42.43,30H303.57z"/>
	</g>
</g>
<g>
	<g>
		<path d="M503.043,152.271C500.142,150.994,431.021,121,346,121c-4.942,0-9.954,0.109-15,0.315V45
			c0-5.917-3.479-11.282-8.882-13.696C319.257,30.026,251.063,0,166,0C80.979,0,11.858,29.994,8.957,31.271
			C3.514,33.667,0,39.053,0,45v109.445c0,102.751,63.176,196.58,160.429,235.482c1.788,0.715,3.679,1.073,5.571,1.073
			c1.892,0,3.783-0.357,5.571-1.073c10.497-4.199,20.637-9.061,30.377-14.542c26.702,61.832,76.334,110.683,138.481,135.542
			c1.788,0.715,3.68,1.073,5.571,1.073c1.891,0,3.783-0.357,5.571-1.073C448.078,472.324,512,378.048,512,274.445V166
			C512,160.053,508.486,154.667,503.043,152.271z M166.003,359.758C84.411,324.513,30,242.767,30,154.445V55.182
			C50.578,47.496,104.215,30,166,30c61.487,0,114.616,17.467,135,25.146v99.299C301,245.659,247.054,324.838,166.003,359.758z
			 M482,274.445c0,88.907-54.407,171.048-136,206.31c-53.669-23.198-96.168-67.001-118.461-121.881
			C289.92,313.085,331,238.431,331,154.445v-3.101c5.052-0.225,10.066-0.345,15-0.345c61.582,0,115.38,17.517,136,25.195V274.445z"
			/>
	</g>
</g>
<g>
</g>
<g>
</g>
<g>
</g>
<g>
</g>
<g>
</g>
<g>
</g>
<g>
</g>
<g>
</g>
<g>
</g>
<g>
</g>
<g>
</g>
<g>
</g>
<g>
</g>
<g>
</g>
<g>
</g>
</svg>
